<?xml version="1.0" encoding="UTF-8" standalone="no"?>
<!DOCTYPE svg PUBLIC "-//W3C//DTD SVG 1.1//EN"
 "http://www.w3.org/Graphics/SVG/1.1/DTD/svg11.dtd">
<!-- Generated by graphviz version 2.49.2 (20211016.1639)
 -->
<!-- Pages: 1 -->
<svg width="1654pt" height="404pt"
 viewBox="0.00 0.00 1654.01 404.00" xmlns="http://www.w3.org/2000/svg" xmlns:xlink="http://www.w3.org/1999/xlink">
<g id="graph0" class="graph" transform="scale(1 1) rotate(0) translate(4 400)">
<polygon fill="white" stroke="transparent" points="-4,4 -4,-400 1650.01,-400 1650.01,4 -4,4"/>
<!-- [root] aws_instance.app_server (expand) -->
<g id="node1" class="node">
<title>[root] aws_instance.app_server (expand)</title>
<polygon fill="none" stroke="black" points="641.28,-180 485.28,-180 485.28,-144 641.28,-144 641.28,-180"/>
<text text-anchor="middle" x="563.28" y="-158.3" font-family="Times,serif" font-size="14.00">aws_instance.app_server</text>
</g>
<!-- [root] provider[&quot;registry.terraform.io/hashicorp/aws&quot;] -->
<g id="node5" class="node">
<title>[root] provider[&quot;registry.terraform.io/hashicorp/aws&quot;]</title>
<polygon fill="none" stroke="black" points="258.28,-108 0.22,-90 258.28,-72 516.35,-90 258.28,-108"/>
<text text-anchor="middle" x="258.28" y="-86.3" font-family="Times,serif" font-size="14.00">provider[&quot;registry.terraform.io/hashicorp/aws&quot;]</text>
</g>
<!-- [root] aws_instance.app_server (expand)&#45;&gt;[root] provider[&quot;registry.terraform.io/hashicorp/aws&quot;] -->
<g id="edge1" class="edge">
<title>[root] aws_instance.app_server (expand)&#45;&gt;[root] provider[&quot;registry.terraform.io/hashicorp/aws&quot;]</title>
<path fill="none" stroke="black" d="M489.06,-143.97C439.08,-132.49 373.7,-117.49 325.3,-106.38"/>
<polygon fill="black" stroke="black" points="326.07,-102.97 315.54,-104.14 324.51,-109.79 326.07,-102.97"/>
</g>
<!-- [root] random_pet.my&#45;pet (expand) -->
<g id="node8" class="node">
<title>[root] random_pet.my&#45;pet (expand)</title>
<polygon fill="none" stroke="black" points="913.78,-108 786.78,-108 786.78,-72 913.78,-72 913.78,-108"/>
<text text-anchor="middle" x="850.28" y="-86.3" font-family="Times,serif" font-size="14.00">random_pet.my&#45;pet</text>
</g>
<!-- [root] aws_instance.app_server (expand)&#45;&gt;[root] random_pet.my&#45;pet (expand) -->
<g id="edge2" class="edge">
<title>[root] aws_instance.app_server (expand)&#45;&gt;[root] random_pet.my&#45;pet (expand)</title>
<path fill="none" stroke="black" d="M633.12,-143.97C676.62,-133.36 732.51,-119.72 776.7,-108.95"/>
<polygon fill="black" stroke="black" points="777.63,-112.32 786.51,-106.55 775.97,-105.52 777.63,-112.32"/>
</g>
<!-- [root] var.ami -->
<g id="node9" class="node">
<title>[root] var.ami</title>
<polygon fill="none" stroke="black" points="586.28,-108 534.28,-108 534.28,-72 592.28,-72 592.28,-102 586.28,-108"/>
<polyline fill="none" stroke="black" points="586.28,-108 586.28,-102 "/>
<polyline fill="none" stroke="black" points="592.28,-102 586.28,-102 "/>
<text text-anchor="middle" x="563.28" y="-86.3" font-family="Times,serif" font-size="14.00">var.ami</text>
</g>
<!-- [root] aws_instance.app_server (expand)&#45;&gt;[root] var.ami -->
<g id="edge3" class="edge">
<title>[root] aws_instance.app_server (expand)&#45;&gt;[root] var.ami</title>
<path fill="none" stroke="black" d="M563.28,-143.7C563.28,-135.98 563.28,-126.71 563.28,-118.11"/>
<polygon fill="black" stroke="black" points="566.78,-118.1 563.28,-108.1 559.78,-118.1 566.78,-118.1"/>
</g>
<!-- [root] var.instance_type -->
<g id="node12" class="node">
<title>[root] var.instance_type</title>
<polygon fill="none" stroke="black" points="718.28,-108 610.28,-108 610.28,-72 724.28,-72 724.28,-102 718.28,-108"/>
<polyline fill="none" stroke="black" points="718.28,-108 718.28,-102 "/>
<polyline fill="none" stroke="black" points="724.28,-102 718.28,-102 "/>
<text text-anchor="middle" x="667.28" y="-86.3" font-family="Times,serif" font-size="14.00">var.instance_type</text>
</g>
<!-- [root] aws_instance.app_server (expand)&#45;&gt;[root] var.instance_type -->
<g id="edge4" class="edge">
<title>[root] aws_instance.app_server (expand)&#45;&gt;[root] var.instance_type</title>
<path fill="none" stroke="black" d="M588.72,-143.88C602.07,-134.89 618.61,-123.76 633.06,-114.03"/>
<polygon fill="black" stroke="black" points="635.4,-116.68 641.74,-108.19 631.49,-110.87 635.4,-116.68"/>
</g>
<!-- [root] google_compute_instance.vm_instance (expand) -->
<g id="node2" class="node">
<title>[root] google_compute_instance.vm_instance (expand)</title>
<polygon fill="none" stroke="black" points="1149.78,-252 912.78,-252 912.78,-216 1149.78,-216 1149.78,-252"/>
<text text-anchor="middle" x="1031.28" y="-230.3" font-family="Times,serif" font-size="14.00">google_compute_instance.vm_instance</text>
</g>
<!-- [root] google_compute_network.terraform_network (expand) -->
<g id="node3" class="node">
<title>[root] google_compute_network.terraform_network (expand)</title>
<polygon fill="none" stroke="black" points="1412.28,-180 1140.28,-180 1140.28,-144 1412.28,-144 1412.28,-180"/>
<text text-anchor="middle" x="1276.28" y="-158.3" font-family="Times,serif" font-size="14.00">google_compute_network.terraform_network</text>
</g>
<!-- [root] google_compute_instance.vm_instance (expand)&#45;&gt;[root] google_compute_network.terraform_network (expand) -->
<g id="edge5" class="edge">
<title>[root] google_compute_instance.vm_instance (expand)&#45;&gt;[root] google_compute_network.terraform_network (expand)</title>
<path fill="none" stroke="black" d="M1090.9,-215.97C1125.73,-206.01 1169.86,-193.41 1206.33,-182.99"/>
<polygon fill="black" stroke="black" points="1207.74,-186.22 1216.4,-180.11 1205.82,-179.49 1207.74,-186.22"/>
</g>
<!-- [root] google_compute_instance.vm_instance (expand)&#45;&gt;[root] random_pet.my&#45;pet (expand) -->
<g id="edge6" class="edge">
<title>[root] google_compute_instance.vm_instance (expand)&#45;&gt;[root] random_pet.my&#45;pet (expand)</title>
<path fill="none" stroke="black" d="M973.19,-215.97C951.23,-207.58 927.04,-195.8 908.28,-180 887.92,-162.85 872.08,-136.73 862.13,-117.22"/>
<polygon fill="black" stroke="black" points="865.28,-115.68 857.73,-108.24 858.99,-118.76 865.28,-115.68"/>
</g>
<!-- [root] var.image -->
<g id="node11" class="node">
<title>[root] var.image</title>
<polygon fill="none" stroke="black" points="981.78,-180 916.78,-180 916.78,-144 987.78,-144 987.78,-174 981.78,-180"/>
<polyline fill="none" stroke="black" points="981.78,-180 981.78,-174 "/>
<polyline fill="none" stroke="black" points="987.78,-174 981.78,-174 "/>
<text text-anchor="middle" x="952.28" y="-158.3" font-family="Times,serif" font-size="14.00">var.image</text>
</g>
<!-- [root] google_compute_instance.vm_instance (expand)&#45;&gt;[root] var.image -->
<g id="edge7" class="edge">
<title>[root] google_compute_instance.vm_instance (expand)&#45;&gt;[root] var.image</title>
<path fill="none" stroke="black" d="M1011.76,-215.7C1001.9,-206.97 989.8,-196.24 979.09,-186.75"/>
<polygon fill="black" stroke="black" points="981.39,-184.12 971.59,-180.1 976.75,-189.36 981.39,-184.12"/>
</g>
<!-- [root] var.machine_type -->
<g id="node13" class="node">
<title>[root] var.machine_type</title>
<polygon fill="none" stroke="black" points="1116.28,-180 1006.28,-180 1006.28,-144 1122.28,-144 1122.28,-174 1116.28,-180"/>
<polyline fill="none" stroke="black" points="1116.28,-180 1116.28,-174 "/>
<polyline fill="none" stroke="black" points="1122.28,-174 1116.28,-174 "/>
<text text-anchor="middle" x="1064.28" y="-158.3" font-family="Times,serif" font-size="14.00">var.machine_type</text>
</g>
<!-- [root] google_compute_instance.vm_instance (expand)&#45;&gt;[root] var.machine_type -->
<g id="edge8" class="edge">
<title>[root] google_compute_instance.vm_instance (expand)&#45;&gt;[root] var.machine_type</title>
<path fill="none" stroke="black" d="M1039.44,-215.7C1043.2,-207.73 1047.74,-198.1 1051.9,-189.26"/>
<polygon fill="black" stroke="black" points="1055.12,-190.64 1056.22,-180.1 1048.79,-187.66 1055.12,-190.64"/>
</g>
<!-- [root] provider[&quot;registry.terraform.io/hashicorp/google&quot;] -->
<g id="node6" class="node">
<title>[root] provider[&quot;registry.terraform.io/hashicorp/google&quot;]</title>
<polygon fill="none" stroke="black" points="1276.28,-108 1002.47,-90 1276.28,-72 1550.1,-90 1276.28,-108"/>
<text text-anchor="middle" x="1276.28" y="-86.3" font-family="Times,serif" font-size="14.00">provider[&quot;registry.terraform.io/hashicorp/google&quot;]</text>
</g>
<!-- [root] google_compute_network.terraform_network (expand)&#45;&gt;[root] provider[&quot;registry.terraform.io/hashicorp/google&quot;] -->
<g id="edge9" class="edge">
<title>[root] google_compute_network.terraform_network (expand)&#45;&gt;[root] provider[&quot;registry.terraform.io/hashicorp/google&quot;]</title>
<path fill="none" stroke="black" d="M1276.28,-143.7C1276.28,-135.98 1276.28,-126.71 1276.28,-118.11"/>
<polygon fill="black" stroke="black" points="1279.78,-118.1 1276.28,-108.1 1272.78,-118.1 1279.78,-118.1"/>
</g>
<!-- [root] output.awsinstance_id -->
<g id="node4" class="node">
<title>[root] output.awsinstance_id</title>
<polygon fill="none" stroke="black" points="627.78,-252 492.78,-252 492.78,-216 633.78,-216 633.78,-246 627.78,-252"/>
<polyline fill="none" stroke="black" points="627.78,-252 627.78,-246 "/>
<polyline fill="none" stroke="black" points="633.78,-246 627.78,-246 "/>
<text text-anchor="middle" x="563.28" y="-230.3" font-family="Times,serif" font-size="14.00">output.awsinstance_id</text>
</g>
<!-- [root] output.awsinstance_id&#45;&gt;[root] aws_instance.app_server (expand) -->
<g id="edge12" class="edge">
<title>[root] output.awsinstance_id&#45;&gt;[root] aws_instance.app_server (expand)</title>
<path fill="none" stroke="black" d="M563.28,-215.7C563.28,-207.98 563.28,-198.71 563.28,-190.11"/>
<polygon fill="black" stroke="black" points="566.78,-190.1 563.28,-180.1 559.78,-190.1 566.78,-190.1"/>
</g>
<!-- [root] var.profile -->
<g id="node15" class="node">
<title>[root] var.profile</title>
<polygon fill="none" stroke="black" points="335.28,-36 267.28,-36 267.28,0 341.28,0 341.28,-30 335.28,-36"/>
<polyline fill="none" stroke="black" points="335.28,-36 335.28,-30 "/>
<polyline fill="none" stroke="black" points="341.28,-30 335.28,-30 "/>
<text text-anchor="middle" x="304.28" y="-14.3" font-family="Times,serif" font-size="14.00">var.profile</text>
</g>
<!-- [root] provider[&quot;registry.terraform.io/hashicorp/aws&quot;]&#45;&gt;[root] var.profile -->
<g id="edge14" class="edge">
<title>[root] provider[&quot;registry.terraform.io/hashicorp/aws&quot;]&#45;&gt;[root] var.profile</title>
<path fill="none" stroke="black" d="M269.18,-72.41C274.58,-64.2 281.22,-54.1 287.26,-44.9"/>
<polygon fill="black" stroke="black" points="290.25,-46.73 292.82,-36.45 284.4,-42.88 290.25,-46.73"/>
</g>
<!-- [root] var.region -->
<g id="node17" class="node">
<title>[root] var.region</title>
<polygon fill="none" stroke="black" points="242.78,-36 175.78,-36 175.78,0 248.78,0 248.78,-30 242.78,-36"/>
<polyline fill="none" stroke="black" points="242.78,-36 242.78,-30 "/>
<polyline fill="none" stroke="black" points="248.78,-30 242.78,-30 "/>
<text text-anchor="middle" x="212.28" y="-14.3" font-family="Times,serif" font-size="14.00">var.region</text>
</g>
<!-- [root] provider[&quot;registry.terraform.io/hashicorp/aws&quot;]&#45;&gt;[root] var.region -->
<g id="edge15" class="edge">
<title>[root] provider[&quot;registry.terraform.io/hashicorp/aws&quot;]&#45;&gt;[root] var.region</title>
<path fill="none" stroke="black" d="M247.38,-72.41C241.99,-64.2 235.35,-54.1 229.3,-44.9"/>
<polygon fill="black" stroke="black" points="232.17,-42.88 223.75,-36.45 226.32,-46.73 232.17,-42.88"/>
</g>
<!-- [root] var.credentials -->
<g id="node10" class="node">
<title>[root] var.credentials</title>
<polygon fill="none" stroke="black" points="1418.28,-36 1326.28,-36 1326.28,0 1424.28,0 1424.28,-30 1418.28,-36"/>
<polyline fill="none" stroke="black" points="1418.28,-36 1418.28,-30 "/>
<polyline fill="none" stroke="black" points="1424.28,-30 1418.28,-30 "/>
<text text-anchor="middle" x="1375.28" y="-14.3" font-family="Times,serif" font-size="14.00">var.credentials</text>
</g>
<!-- [root] provider[&quot;registry.terraform.io/hashicorp/google&quot;]&#45;&gt;[root] var.credentials -->
<g id="edge17" class="edge">
<title>[root] provider[&quot;registry.terraform.io/hashicorp/google&quot;]&#45;&gt;[root] var.credentials</title>
<path fill="none" stroke="black" d="M1298.75,-73.12C1311.81,-63.88 1328.51,-52.07 1342.97,-41.85"/>
<polygon fill="black" stroke="black" points="1345.03,-44.68 1351.18,-36.04 1340.99,-38.96 1345.03,-44.68"/>
</g>
<!-- [root] var.project -->
<g id="node16" class="node">
<title>[root] var.project</title>
<polygon fill="none" stroke="black" points="1220.28,-36 1150.28,-36 1150.28,0 1226.28,0 1226.28,-30 1220.28,-36"/>
<polyline fill="none" stroke="black" points="1220.28,-36 1220.28,-30 "/>
<polyline fill="none" stroke="black" points="1226.28,-30 1220.28,-30 "/>
<text text-anchor="middle" x="1188.28" y="-14.3" font-family="Times,serif" font-size="14.00">var.project</text>
</g>
<!-- [root] provider[&quot;registry.terraform.io/hashicorp/google&quot;]&#45;&gt;[root] var.project -->
<g id="edge18" class="edge">
<title>[root] provider[&quot;registry.terraform.io/hashicorp/google&quot;]&#45;&gt;[root] var.project</title>
<path fill="none" stroke="black" d="M1256.31,-73.12C1244.92,-64.05 1230.42,-52.51 1217.73,-42.42"/>
<polygon fill="black" stroke="black" points="1219.72,-39.53 1209.71,-36.04 1215.36,-45.01 1219.72,-39.53"/>
</g>
<!-- [root] var.zone -->
<g id="node18" class="node">
<title>[root] var.zone</title>
<polygon fill="none" stroke="black" points="1302.28,-36 1244.28,-36 1244.28,0 1308.28,0 1308.28,-30 1302.28,-36"/>
<polyline fill="none" stroke="black" points="1302.28,-36 1302.28,-30 "/>
<polyline fill="none" stroke="black" points="1308.28,-30 1302.28,-30 "/>
<text text-anchor="middle" x="1276.28" y="-14.3" font-family="Times,serif" font-size="14.00">var.zone</text>
</g>
<!-- [root] provider[&quot;registry.terraform.io/hashicorp/google&quot;]&#45;&gt;[root] var.zone -->
<g id="edge19" class="edge">
<title>[root] provider[&quot;registry.terraform.io/hashicorp/google&quot;]&#45;&gt;[root] var.zone</title>
<path fill="none" stroke="black" d="M1276.28,-71.7C1276.28,-63.98 1276.28,-54.71 1276.28,-46.11"/>
<polygon fill="black" stroke="black" points="1279.78,-46.1 1276.28,-36.1 1272.78,-46.1 1279.78,-46.1"/>
</g>
<!-- [root] provider[&quot;registry.terraform.io/hashicorp/random&quot;] -->
<g id="node7" class="node">
<title>[root] provider[&quot;registry.terraform.io/hashicorp/random&quot;]</title>
<polygon fill="none" stroke="black" points="724.28,-36 446.61,-18 724.28,0 1001.95,-18 724.28,-36"/>
<text text-anchor="middle" x="724.28" y="-14.3" font-family="Times,serif" font-size="14.00">provider[&quot;registry.terraform.io/hashicorp/random&quot;]</text>
</g>
<!-- [root] random_pet.my&#45;pet (expand)&#45;&gt;[root] provider[&quot;registry.terraform.io/hashicorp/random&quot;] -->
<g id="edge21" class="edge">
<title>[root] random_pet.my&#45;pet (expand)&#45;&gt;[root] provider[&quot;registry.terraform.io/hashicorp/random&quot;]</title>
<path fill="none" stroke="black" d="M819.46,-71.88C801.68,-62 779.22,-49.52 760.59,-39.17"/>
<polygon fill="black" stroke="black" points="762.23,-36.08 751.79,-34.28 758.83,-42.2 762.23,-36.08"/>
</g>
<!-- [root] var.prefix -->
<g id="node14" class="node">
<title>[root] var.prefix</title>
<polygon fill="none" stroke="black" points="1084.28,-36 1020.28,-36 1020.28,0 1090.28,0 1090.28,-30 1084.28,-36"/>
<polyline fill="none" stroke="black" points="1084.28,-36 1084.28,-30 "/>
<polyline fill="none" stroke="black" points="1090.28,-30 1084.28,-30 "/>
<text text-anchor="middle" x="1055.28" y="-14.3" font-family="Times,serif" font-size="14.00">var.prefix</text>
</g>
<!-- [root] random_pet.my&#45;pet (expand)&#45;&gt;[root] var.prefix -->
<g id="edge22" class="edge">
<title>[root] random_pet.my&#45;pet (expand)&#45;&gt;[root] var.prefix</title>
<path fill="none" stroke="black" d="M904.55,-71.89C933.62,-62.55 970.21,-50.52 1010.74,-36.12"/>
<polygon fill="black" stroke="black" points="1012.04,-39.37 1020.28,-32.71 1009.68,-32.78 1012.04,-39.37"/>
</g>
<!-- [root] meta.count&#45;boundary (EachMode fixup) -->
<g id="node19" class="node">
<title>[root] meta.count&#45;boundary (EachMode fixup)</title>
<ellipse fill="none" stroke="black" cx="450.28" cy="-306" rx="180.07" ry="18"/>
<text text-anchor="middle" x="450.28" y="-302.3" font-family="Times,serif" font-size="14.00">[root] meta.count&#45;boundary (EachMode fixup)</text>
</g>
<!-- [root] meta.count&#45;boundary (EachMode fixup)&#45;&gt;[root] google_compute_instance.vm_instance (expand) -->
<g id="edge10" class="edge">
<title>[root] meta.count&#45;boundary (EachMode fixup)&#45;&gt;[root] google_compute_instance.vm_instance (expand)</title>
<path fill="none" stroke="black" d="M560.59,-291.71C657.97,-279.98 800.01,-262.86 902.55,-250.51"/>
<polygon fill="black" stroke="black" points="903.15,-253.96 912.66,-249.29 902.32,-247.01 903.15,-253.96"/>
</g>
<!-- [root] meta.count&#45;boundary (EachMode fixup)&#45;&gt;[root] output.awsinstance_id -->
<g id="edge11" class="edge">
<title>[root] meta.count&#45;boundary (EachMode fixup)&#45;&gt;[root] output.awsinstance_id</title>
<path fill="none" stroke="black" d="M477.64,-288.05C492.52,-278.84 511.11,-267.32 527.17,-257.37"/>
<polygon fill="black" stroke="black" points="529.13,-260.27 535.79,-252.03 525.45,-254.32 529.13,-260.27"/>
</g>
<!-- [root] provider[&quot;registry.terraform.io/hashicorp/aws&quot;] (close) -->
<g id="node20" class="node">
<title>[root] provider[&quot;registry.terraform.io/hashicorp/aws&quot;] (close)</title>
<ellipse fill="none" stroke="black" cx="242.28" cy="-234" rx="232.86" ry="18"/>
<text text-anchor="middle" x="242.28" y="-230.3" font-family="Times,serif" font-size="14.00">[root] provider[&quot;registry.terraform.io/hashicorp/aws&quot;] (close)</text>
</g>
<!-- [root] provider[&quot;registry.terraform.io/hashicorp/aws&quot;] (close)&#45;&gt;[root] aws_instance.app_server (expand) -->
<g id="edge13" class="edge">
<title>[root] provider[&quot;registry.terraform.io/hashicorp/aws&quot;] (close)&#45;&gt;[root] aws_instance.app_server (expand)</title>
<path fill="none" stroke="black" d="M316.33,-216.85C363.72,-206.52 425.44,-193.06 475.32,-182.18"/>
<polygon fill="black" stroke="black" points="476.11,-185.59 485.13,-180.04 474.61,-178.75 476.11,-185.59"/>
</g>
<!-- [root] provider[&quot;registry.terraform.io/hashicorp/google&quot;] (close) -->
<g id="node21" class="node">
<title>[root] provider[&quot;registry.terraform.io/hashicorp/google&quot;] (close)</title>
<ellipse fill="none" stroke="black" cx="1402.28" cy="-306" rx="243.96" ry="18"/>
<text text-anchor="middle" x="1402.28" y="-302.3" font-family="Times,serif" font-size="14.00">[root] provider[&quot;registry.terraform.io/hashicorp/google&quot;] (close)</text>
</g>
<!-- [root] provider[&quot;registry.terraform.io/hashicorp/google&quot;] (close)&#45;&gt;[root] google_compute_instance.vm_instance (expand) -->
<g id="edge16" class="edge">
<title>[root] provider[&quot;registry.terraform.io/hashicorp/google&quot;] (close)&#45;&gt;[root] google_compute_instance.vm_instance (expand)</title>
<path fill="none" stroke="black" d="M1317.63,-289.03C1262.24,-278.58 1189.61,-264.87 1131.36,-253.88"/>
<polygon fill="black" stroke="black" points="1131.87,-250.42 1121.4,-252 1130.57,-257.3 1131.87,-250.42"/>
</g>
<!-- [root] provider[&quot;registry.terraform.io/hashicorp/random&quot;] (close) -->
<g id="node22" class="node">
<title>[root] provider[&quot;registry.terraform.io/hashicorp/random&quot;] (close)</title>
<ellipse fill="none" stroke="black" cx="894.28" cy="-306" rx="246.16" ry="18"/>
<text text-anchor="middle" x="894.28" y="-302.3" font-family="Times,serif" font-size="14.00">[root] provider[&quot;registry.terraform.io/hashicorp/random&quot;] (close)</text>
</g>
<!-- [root] provider[&quot;registry.terraform.io/hashicorp/random&quot;] (close)&#45;&gt;[root] random_pet.my&#45;pet (expand) -->
<g id="edge20" class="edge">
<title>[root] provider[&quot;registry.terraform.io/hashicorp/random&quot;] (close)&#45;&gt;[root] random_pet.my&#45;pet (expand)</title>
<path fill="none" stroke="black" d="M890.76,-287.85C883.13,-250.75 865.05,-162.81 855.86,-118.1"/>
<polygon fill="black" stroke="black" points="859.27,-117.32 853.83,-108.23 852.41,-118.73 859.27,-117.32"/>
</g>
<!-- [root] root -->
<g id="node23" class="node">
<title>[root] root</title>
<ellipse fill="none" stroke="black" cx="672.28" cy="-378" rx="48.19" ry="18"/>
<text text-anchor="middle" x="672.28" y="-374.3" font-family="Times,serif" font-size="14.00">[root] root</text>
</g>
<!-- [root] root&#45;&gt;[root] meta.count&#45;boundary (EachMode fixup) -->
<g id="edge23" class="edge">
<title>[root] root&#45;&gt;[root] meta.count&#45;boundary (EachMode fixup)</title>
<path fill="none" stroke="black" d="M636.62,-365.75C602.99,-355.15 551.89,-339.04 511.7,-326.37"/>
<polygon fill="black" stroke="black" points="512.59,-322.98 502,-323.31 510.49,-329.65 512.59,-322.98"/>
</g>
<!-- [root] root&#45;&gt;[root] provider[&quot;registry.terraform.io/hashicorp/aws&quot;] (close) -->
<g id="edge24" class="edge">
<title>[root] root&#45;&gt;[root] provider[&quot;registry.terraform.io/hashicorp/aws&quot;] (close)</title>
<path fill="none" stroke="black" d="M624.05,-377.5C527.06,-377.47 313.21,-371.83 261.28,-324 244.54,-308.58 240.62,-282.32 240.4,-262.31"/>
<polygon fill="black" stroke="black" points="243.9,-262.29 240.59,-252.22 236.9,-262.16 243.9,-262.29"/>
</g>
<!-- [root] root&#45;&gt;[root] provider[&quot;registry.terraform.io/hashicorp/google&quot;] (close) -->
<g id="edge25" class="edge">
<title>[root] root&#45;&gt;[root] provider[&quot;registry.terraform.io/hashicorp/google&quot;] (close)</title>
<path fill="none" stroke="black" d="M718.22,-372.59C822.75,-362.57 1082.23,-337.69 1249.88,-321.61"/>
<polygon fill="black" stroke="black" points="1250.41,-325.08 1260.03,-320.64 1249.74,-318.11 1250.41,-325.08"/>
</g>
<!-- [root] root&#45;&gt;[root] provider[&quot;registry.terraform.io/hashicorp/random&quot;] (close) -->
<g id="edge26" class="edge">
<title>[root] root&#45;&gt;[root] provider[&quot;registry.terraform.io/hashicorp/random&quot;] (close)</title>
<path fill="none" stroke="black" d="M707.95,-365.75C741.24,-355.26 791.65,-339.36 831.64,-326.75"/>
<polygon fill="black" stroke="black" points="832.82,-330.05 841.31,-323.7 830.72,-323.37 832.82,-330.05"/>
</g>
</g>
</svg>
